<?xml version="1.0" encoding="UTF-8" standalone="no"?>
<svg
   xmlns:dc="http://purl.org/dc/elements/1.1/"
   xmlns:cc="http://creativecommons.org/ns#"
   xmlns:rdf="http://www.w3.org/1999/02/22-rdf-syntax-ns#"
   xmlns:svg="http://www.w3.org/2000/svg"
   xmlns="http://www.w3.org/2000/svg"
   xmlns:sodipodi="http://sodipodi.sourceforge.net/DTD/sodipodi-0.dtd"
   xmlns:inkscape="http://www.inkscape.org/namespaces/inkscape"
   sodipodi:docname="button_add_faded.svg"
   inkscape:version="1.0 (4035a4fb49, 2020-05-01)"
   inkscape:export-ydpi="25.453619"
   inkscape:export-xdpi="25.453619"
   inkscape:export-filename="/home/kalinek/bitmapa.png"
   id="svg8"
   version="1.1"
   viewBox="0 0 26.458334 10.847916"
   height="41"
   width="100">
  <defs
     id="defs2">
    <rect
       id="rect872"
       height="35.82766"
       width="102.09186"
       y="-1.6854219"
       x="-8.5501213" />
  </defs>
  <sodipodi:namedview
     units="px"
     inkscape:window-maximized="1"
     inkscape:window-y="0"
     inkscape:window-x="0"
     inkscape:window-height="1015"
     inkscape:window-width="1920"
     inkscape:pagecheckerboard="true"
     showgrid="false"
     inkscape:document-rotation="0"
     inkscape:current-layer="layer1"
     inkscape:document-units="px"
     inkscape:cy="41.283925"
     inkscape:cx="55.33409"
     inkscape:zoom="7.919596"
     inkscape:pageshadow="2"
     inkscape:pageopacity="0"
     borderopacity="1.0"
     bordercolor="#666666"
     pagecolor="#ffffff"
     id="base" />
  <metadata
     id="metadata5">
    <rdf:RDF>
      <cc:Work
         rdf:about="">
        <dc:format>image/svg+xml</dc:format>
        <dc:type
           rdf:resource="http://purl.org/dc/dcmitype/StillImage" />
        <dc:title></dc:title>
      </cc:Work>
    </rdf:RDF>
  </metadata>
  <g
     id="layer1"
     inkscape:groupmode="layer"
     inkscape:label="Warstwa 1">
    <path
       inkscape:label="buton_add"
       d="m 3.0237227,0.12987559 c -1.4308097,0 -2.58274851,1.15193891 -2.58274851,2.58274861 v 5.4226682 c 0,1.4308097 1.15193881,2.5827486 2.58274851,2.5827486 H 23.434611 c 1.43081,0 2.582748,-1.1519389 2.582748,-2.5827486 V 2.7126242 c 0,-1.4308097 -1.151938,-2.58274861 -2.582748,-2.58274861 z M 12.000245,2.9931578 h 0.45143 v 3.8165444 h -0.45143 V 6.3976397 c -0.09484,0.1635168 -0.215023,0.2853983 -0.360554,0.3655215 -0.143895,0.078488 -0.317101,0.1177321 -0.51986,0.1177321 -0.33194,0 -0.602683,-0.1324488 -0.811985,-0.3973459 C 10.10018,6.2186501 9.9964079,5.8703589 9.9964079,5.4386747 c 0,-0.431684 0.1037721,-0.7799755 0.3114381,-1.0448727 0.209302,-0.2648969 0.480045,-0.3973459 0.811985,-0.3973459 0.202759,0 0.375965,0.04 0.51986,0.1201237 0.145531,0.078488 0.265715,0.1994289 0.360554,0.3629461 z m 4.459105,0 h 0.451429 V 3.5647104 H 16.45935 Z M 3.2709601,3.1476811 h 1.0178311 c 0.7096624,0 1.230587,0.1481056 1.5625261,0.4440709 0.331939,0.2943301 0.4977861,0.7554484 0.4977861,1.3833524 0,0.6311747 -0.1667874,1.0947455 -0.5003615,1.3907109 C 5.5151678,6.6617804 4.9951833,6.8097022 4.2887912,6.8097022 H 3.2709601 Z m 0.4953947,0.4072796 v 2.8476458 h 0.5985944 c 0.5052667,0 0.8746927,-0.1145232 1.1085215,-0.3434467 0.2354642,-0.2289234 0.3531964,-0.5902349 0.3531964,-1.0840554 0,-0.4905499 -0.1177322,-0.8495922 -0.3531964,-1.076881 C 5.2396419,3.6692999 4.8702159,3.5549607 4.3649492,3.5549607 Z m 17.0246182,0.105407 h 0.583693 v 1.2853038 h 1.280337 v 0.578727 H 21.374666 V 6.8097022 H 20.790973 V 5.5243985 h -1.280337 v -0.578727 h 1.280337 z M 8.1838851,3.9964561 c 0.3924402,0 0.7005473,0.1275434 0.9245651,0.3826295 0.2240181,0.2550861 0.3360884,0.6082831 0.3360884,1.0595891 0,0.449671 -0.1120703,0.8028678 -0.3360884,1.0595892 C 8.8844324,6.75335 8.5763253,6.8808933 8.1838851,6.8808933 7.7898099,6.8808933 7.4807625,6.75335 7.2567445,6.4982639 7.0343619,6.2415425 6.9230476,5.8883457 6.9230476,5.4386747 c 0,-0.451306 0.1113143,-0.804503 0.3336969,-1.0595891 0.224018,-0.2550861 0.5330654,-0.3826295 0.9271406,-0.3826295 z m 6.1612549,0 c 0.397344,0 0.694128,0.1030157 0.890348,0.3090469 0.196219,0.2060311 0.29433,0.5182873 0.29433,0.9368903 V 6.8097022 H 15.078573 V 6.3926729 C 14.975558,6.55946 14.847075,6.683038 14.693368,6.7631612 c -0.153705,0.078488 -0.341627,0.1177321 -0.56401,0.1177321 -0.281249,0 -0.50539,-0.078488 -0.672177,-0.2354643 -0.165152,-0.1586111 -0.247605,-0.3704884 -0.247605,-0.6353854 0,-0.3090469 0.103016,-0.5420583 0.309047,-0.6990347 0.207666,-0.156976 0.516713,-0.2354639 0.927141,-0.2354642 h 0.632809 v -0.044149 c 0,-0.2076663 -0.06867,-0.3678515 -0.206031,-0.4806781 -0.135719,-0.1144621 -0.327034,-0.1716317 -0.573944,-0.1716317 -0.156976,0 -0.309988,0.018682 -0.458788,0.056291 -0.1488,0.037609 -0.291817,0.094022 -0.42917,0.1692398 V 4.1877708 c 0.165152,-0.063771 0.325337,-0.1113137 0.480678,-0.1423822 0.155341,-0.032704 0.306656,-0.048933 0.453822,-0.048932 z m 2.11421,0.066224 h 0.451429 v 2.796138 c 0,0.3499259 -0.06717,0.6033162 -0.201249,0.760292 -0.132448,0.1569762 -0.346594,0.2354643 -0.642558,0.2354643 H 15.89534 v -0.382629 h 0.120123 c 0.171693,0 0.288669,-0.04 0.350805,-0.1201236 0.06213,-0.078488 0.09308,-0.2428228 0.09308,-0.4930033 z m -5.229146,0.3114382 c -0.238734,0 -0.42684,0.094902 -0.564194,0.2845807 -0.135719,0.1880444 -0.20364,0.4480366 -0.20364,0.7799753 0,0.3319391 0.06792,0.5926873 0.20364,0.7823669 0.137354,0.188044 0.32546,0.2820052 0.564194,0.2820051 0.238735,0 0.426657,-0.093962 0.56401,-0.2820051 0.137355,-0.1896796 0.206031,-0.4504278 0.206031,-0.7823669 0,-0.3319387 -0.06867,-0.5919309 -0.206031,-0.7799753 -0.137353,-0.1896793 -0.325275,-0.2845807 -0.56401,-0.2845807 z m -3.0463189,0.00496 c -0.2420047,0 -0.4333198,0.094717 -0.5739442,0.2843967 -0.1406244,0.1880446 -0.210998,0.4465239 -0.210998,0.7751925 0,0.3286688 0.069433,0.5877203 0.2084226,0.7774 0.1406244,0.1880443 0.3328798,0.2821891 0.5765196,0.2821891 0.2403697,0 0.4307442,-0.094901 0.5713687,-0.2845806 0.1406244,-0.1896775 0.210998,-0.4479732 0.210998,-0.7750069 0,-0.3253982 -0.070373,-0.5829378 -0.210998,-0.772617 C 8.6146293,4.4747427 8.4242548,4.3790852 8.1838851,4.3790852 Z M 14.62972,5.4287338 c -0.364643,0 -0.617277,0.041697 -0.757901,0.1250905 -0.140625,0.083393 -0.210998,0.2256534 -0.210998,0.4267789 0,0.1602466 0.05226,0.2877897 0.156915,0.3826295 0.106285,0.093204 0.250242,0.1398068 0.431745,0.1398067 0.250181,0 0.45055,-0.088299 0.600986,-0.2648972 C 15.002538,6.059909 15.078573,5.8236883 15.078573,5.529358 V 5.428739 Z"
       style="fill:#006380;fill-opacity:0.833777;stroke-width:2.64583;stroke-linecap:round;stroke-linejoin:bevel"
       id="button_add">
      <title
         id="title1138">buton_add</title>
    </path>
    <text
       id="text845"
       y="-20.305161"
       x="31.61104"
       style="font-style:normal;font-weight:normal;font-size:10.5833px;line-height:1.25;font-family:sans-serif;fill:#000000;fill-opacity:1;stroke:none;stroke-width:0.264583"
       xml:space="preserve"><tspan
         style="stroke-width:0.264583"
         y="-20.305161"
         x="31.61104"
         id="tspan843"
         sodipodi:role="line" /></text>
    <text
       style="font-style:normal;font-weight:normal;font-size:10.5833px;line-height:1.25;font-family:sans-serif;white-space:pre;shape-inside:url(#rect872);fill:#000000;fill-opacity:1;stroke:none;"
       id="text870"
       xml:space="preserve" />
  </g>
  <g
     inkscape:label="tekst"
     id="layer2"
     inkscape:groupmode="layer" />
</svg>
