<?xml version="1.0" encoding="UTF-8" standalone="no"?>
<svg
   xmlns:dc="http://purl.org/dc/elements/1.1/"
   xmlns:cc="http://creativecommons.org/ns#"
   xmlns:rdf="http://www.w3.org/1999/02/22-rdf-syntax-ns#"
   xmlns:svg="http://www.w3.org/2000/svg"
   xmlns="http://www.w3.org/2000/svg"
   xmlns:sodipodi="http://sodipodi.sourceforge.net/DTD/sodipodi-0.dtd"
   xmlns:inkscape="http://www.inkscape.org/namespaces/inkscape"
   sodipodi:docname="button_add.svg"
   inkscape:version="1.0 (4035a4fb49, 2020-05-01)"
   inkscape:export-ydpi="25.453619"
   inkscape:export-xdpi="25.453619"
   inkscape:export-filename="/home/kalinek/bitmapa.png"
   id="svg8"
   version="1.1"
   viewBox="0 0 26.458333 10.847916"
   height="41"
   width="100">
  <defs
     id="defs2">
    <rect
       id="rect872"
       height="35.82766"
       width="102.09186"
       y="-1.6854219"
       x="-8.5501213" />
  </defs>
  <sodipodi:namedview
     inkscape:window-maximized="1"
     inkscape:window-y="0"
     inkscape:window-x="0"
     inkscape:window-height="1015"
     inkscape:window-width="1920"
     inkscape:pagecheckerboard="true"
     showgrid="false"
     inkscape:document-rotation="0"
     inkscape:current-layer="layer1"
     inkscape:document-units="px"
     inkscape:cy="5.0186163"
     inkscape:cx="54.651003"
     inkscape:zoom="7.919596"
     inkscape:pageshadow="2"
     inkscape:pageopacity="0"
     borderopacity="1.0"
     bordercolor="#666666"
     pagecolor="#ffffff"
     id="base"
     units="px" />
  <metadata
     id="metadata5">
    <rdf:RDF>
      <cc:Work
         rdf:about="">
        <dc:format>image/svg+xml</dc:format>
        <dc:type
           rdf:resource="http://purl.org/dc/dcmitype/StillImage" />
        <dc:title></dc:title>
      </cc:Work>
    </rdf:RDF>
  </metadata>
  <g
     id="layer1"
     inkscape:groupmode="layer"
     inkscape:label="Warstwa 1"
     transform="translate(-0.14159343,-0.14831137)">
    <path
       inkscape:label="buton_add"
       d="m 3.1522888,0.2599018 c -1.4326363,0 -2.5860454,1.1559171 -2.5860454,2.5916695 v 5.4413966 c 0,1.4357523 1.1534091,2.5916691 2.5860454,2.5916691 H 23.589231 c 1.432635,0 2.586045,-1.1559168 2.586045,-2.5916691 V 2.8515713 c 0,-1.4357524 -1.15341,-2.5916695 -2.586045,-2.5916695 z m 8.9879822,2.8731718 h 0.452004 V 6.9628 H 12.140271 V 6.549314 c -0.09496,0.1640812 -0.2153,0.2863841 -0.361016,0.3667841 -0.144078,0.078756 -0.317506,0.1181405 -0.520525,0.1181405 -0.332362,0 -0.603451,-0.1329054 -0.813018,-0.3987175 -0.207932,-0.2658122 -0.311837,-0.6153067 -0.311837,-1.0484825 0,-0.4331745 0.103909,-0.7826691 0.311837,-1.0484811 0.209567,-0.2658121 0.480656,-0.3987176 0.813018,-0.3987176 0.203019,0 0.376447,0.040139 0.520525,0.1205383 0.145716,0.078756 0.266054,0.2001172 0.361016,0.3641995 z m 4.464794,0 h 0.452006 v 0.573527 H 16.605065 Z M 3.3998418,3.28813 h 1.0191301 c 0.7105683,0 1.2321579,0.1486172 1.5645205,0.4456051 0.3323627,0.2953467 0.4984218,0.7580582 0.4984218,1.3881308 0,0.633354 -0.1670003,1.0985267 -0.5010002,1.3955134 C 5.6469139,6.8143671 5.1262657,6.9628 4.4189719,6.9628 H 3.3998418 Z m 0.4960269,0.4086868 v 2.8574819 h 0.5993587 c 0.5059114,0 0.8758089,-0.1149205 1.1099362,-0.3446332 C 5.8409282,5.9799515 5.9588109,5.617392 5.9588109,5.1218659 5.9588109,4.629621 5.8409278,4.2693384 5.6051636,4.0412646 5.3710363,3.8115505 5.0011388,3.6968168 4.4952274,3.6968168 Z M 20.942219,3.8025915 h 0.584437 V 5.092335 h 1.281972 V 5.6730602 H 21.526656 V 6.9628036 H 20.942219 V 5.6730602 H 19.660248 V 5.092335 h 1.281971 z M 8.3190378,4.1398411 c 0.3929406,0 0.7014416,0.127983 0.9257454,0.3839502 0.2243037,0.2559674 0.3365176,0.6103843 0.3365176,1.0632486 0,0.4512242 -0.1122103,0.8056411 -0.3365176,1.0632496 -0.2243038,0.2559673 -0.5328048,0.3839503 -0.9257454,0.3839503 -0.3945783,0 -0.7040194,-0.127983 -0.9283243,-0.3839503 C 7.1680473,6.392681 7.0565907,6.0382641 7.0565907,5.5870399 c 0,-0.4528643 0.1114567,-0.8072812 0.3341228,-1.0632486 0.2243049,-0.2559672 0.533746,-0.3839502 0.9283243,-0.3839502 z m 6.1691192,0 c 0.397853,0 0.695015,0.1033685 0.891485,0.3101139 0.196472,0.206743 0.294705,0.5200772 0.294705,0.9401257 V 6.9628036 H 15.222528 V 6.5443341 c -0.103146,0.1673625 -0.231796,0.2913675 -0.385698,0.3717675 -0.1539,0.078756 -0.342063,0.1181405 -0.56473,0.1181405 -0.281609,0 -0.506036,-0.078756 -0.673036,-0.2362763 -0.165362,-0.15916 -0.24792,-0.3717687 -0.24792,-0.6375808 0,-0.3101139 0.103145,-0.5439303 0.309442,-0.7014491 0.207931,-0.1575175 0.517373,-0.2362775 0.928324,-0.2362775 h 0.633618 v -0.044304 c 0,-0.2083831 -0.06877,-0.369122 -0.206295,-0.4823389 -0.135893,-0.1148607 -0.327452,-0.1722239 -0.574677,-0.1722239 -0.157177,0 -0.310383,0.018747 -0.459374,0.05649 -0.14899,0.037744 -0.292189,0.094343 -0.429717,0.1698236 V 4.3318205 c 0.165362,-0.063997 0.325751,-0.1117003 0.481292,-0.1428737 0.155538,-0.032812 0.307046,-0.049105 0.4544,-0.049106 z m 2.116908,0.066451 h 0.452006 v 2.8057951 c 0,0.3511345 -0.06725,0.6054008 -0.201504,0.7629184 -0.132618,0.1575177 -0.347038,0.2362778 -0.64338,0.2362778 H 16.040335 V 7.627331 h 0.120277 c 0.171913,0 0.289038,-0.040139 0.351254,-0.1205385 0.06221,-0.078756 0.0932,-0.2436611 0.0932,-0.494706 z m -5.235819,0.312514 c -0.239039,0 -0.427386,0.095229 -0.564915,0.2855629 -0.135893,0.1886946 -0.203899,0.4495843 -0.203899,0.7826691 0,0.3330861 0.06801,0.5947347 0.203899,0.7850693 0.137529,0.1886945 0.325876,0.2829796 0.564915,0.2829796 0.239038,0 0.4272,-0.094282 0.56473,-0.2829796 0.13753,-0.1903346 0.206295,-0.4519832 0.206295,-0.7850693 0,-0.3330848 -0.06877,-0.5939745 -0.206295,-0.7826691 -0.13753,-0.1903342 -0.325692,-0.2855626 -0.56473,-0.2855629 z m -3.0502082,0.00503 c -0.2423131,0 -0.4338722,0.095049 -0.5746764,0.2853785 -0.140804,0.1886946 -0.2112671,0.4480664 -0.2112671,0.7778701 0,0.3298048 0.069519,0.58975 0.2086882,0.7800858 0.1408041,0.1886933 0.3333046,0.2831627 0.5772553,0.2831627 0.2406766,0 0.4312945,-0.095229 0.5720974,-0.2855629 0.1408041,-0.1903346 0.2112683,-0.449522 0.2112683,-0.7776856 0,-0.3265214 -0.070463,-0.584951 -0.2112683,-0.7752855 C 8.7503323,4.6198206 8.5597144,4.5238332 8.3190378,4.5238332 Z M 14.7731,5.5771175 c -0.365106,0 -0.618064,0.041838 -0.758868,0.125523 -0.140804,0.083676 -0.211267,0.2264327 -0.211267,0.4282533 0,0.1608001 0.05232,0.2887831 0.157114,0.3839503 0.106418,0.093528 0.250561,0.1402903 0.432298,0.1402903 0.2505,0 0.451125,-0.088608 0.601752,-0.2658121 0.152264,-0.1788484 0.228399,-0.4158862 0.228399,-0.7112328 V 5.5771108 Z"
       style="fill:#00538d;fill-opacity:1;stroke-width:2.64583;stroke-linecap:round;stroke-linejoin:bevel"
       id="button_add">
      <title
         id="title1138">buton_add</title>
    </path>
    <text
       id="text845"
       y="-20.305161"
       x="31.61104"
       style="font-style:normal;font-weight:normal;font-size:10.5833px;line-height:1.25;font-family:sans-serif;fill:#000000;fill-opacity:1;stroke:none;stroke-width:0.264583"
       xml:space="preserve"><tspan
         style="stroke-width:0.264583"
         y="-20.305161"
         x="31.61104"
         id="tspan843"
         sodipodi:role="line" /></text>
    <text
       style="font-style:normal;font-weight:normal;font-size:10.5833px;line-height:1.25;font-family:sans-serif;white-space:pre;shape-inside:url(#rect872);fill:#000000;fill-opacity:1;stroke:none;"
       id="text870"
       xml:space="preserve" />
  </g>
  <g
     inkscape:label="tekst"
     id="layer2"
     inkscape:groupmode="layer"
     transform="translate(-0.14159343,-0.14831137)" />
</svg>
